<svg width="542" height="360" viewBox="0 0 542 360" fill="none" xmlns="http://www.w3.org/2000/svg">
<path d="M409.297 359.095C482.362 359.095 541.594 351.993 541.594 343.232C541.594 334.471 482.362 327.369 409.297 327.369C336.231 327.369 277 334.471 277 343.232C277 351.993 336.231 359.095 409.297 359.095Z" fill="#00A6DE"/>
<g filter="url(#filter0_d_55_7388)">
<path d="M321.622 3H5V203H321.622V3Z" fill="white" stroke="#A6A6A6" stroke-width="0.5" stroke-miterlimit="10"/>
<path d="M315.999 10.6963H5V71.0276H315.999V10.6963Z" fill="#005774"/>
<path d="M321.622 3H5V10.6963H321.622V3Z" fill="#263238"/>
<path d="M12.7803 6.84832C12.7803 7.76144 12.035 8.50498 11.1196 8.50498C10.2043 8.50498 9.45898 7.76144 9.45898 6.84832C9.45898 5.93519 10.2043 5.19165 11.1196 5.19165C12.035 5.19165 12.7803 5.93519 12.7803 6.84832Z" fill="#C7C7C7"/>
<path d="M19.5669 6.84832C19.5669 7.76144 18.8216 8.50498 17.9063 8.50498C16.9909 8.50498 16.2456 7.76144 16.2456 6.84832C16.2456 5.93519 16.9909 5.19165 17.9063 5.19165C18.8216 5.19165 19.5669 5.93519 19.5669 6.84832Z" fill="white"/>
<path d="M26.353 6.84832C26.353 7.76144 25.6077 8.50498 24.6924 8.50498C23.7771 8.50498 23.0317 7.76144 23.0317 6.84832C23.0317 5.93519 23.7771 5.19165 24.6924 5.19165C25.6077 5.19165 26.353 5.93519 26.353 6.84832Z" fill="#FFC727"/>
<path d="M321.622 10.6963H315.999V203H321.622V10.6963Z" fill="#DBDBDB"/>
<path d="M318.811 77.3673C318.013 77.3673 317.359 76.7151 317.359 75.9193V13.2661C317.359 12.4703 318.013 11.8181 318.811 11.8181C319.608 11.8181 320.262 12.4703 320.262 13.2661V75.9063C320.262 76.702 319.608 77.3542 318.811 77.3542V77.3673Z" fill="#A6A6A6"/>
<path d="M241.283 130.315H301.302V84.3723H241.283V130.315Z" fill="#FFC727"/>
<path opacity="0.6" d="M247.259 94.4295C246.526 98.2646 249.835 101.552 253.666 100.821C255.81 100.417 257.536 98.6951 257.942 96.5558C258.674 92.7207 255.366 89.4334 251.534 90.1639C249.39 90.5683 247.664 92.2902 247.259 94.4295Z" fill="white"/>
<path d="M261.081 120.428H301.302L281.191 95.6951L261.081 120.428Z" fill="#FFC727"/>
<path opacity="0.2" d="M261.081 120.428H301.302L281.191 95.6951L261.081 120.428Z" fill="black"/>
<path d="M241.283 120.441H276.941L259.119 104.344L241.283 120.441Z" fill="#FFC727"/>
<path opacity="0.1" d="M241.283 120.441H276.941L259.119 104.344L241.283 120.441Z" fill="black"/>
<path d="M301.302 120.427H241.283V130.328H301.302V120.427Z" fill="#FFC727"/>
<path opacity="0.1" d="M301.302 120.427H241.283V130.328H301.302V120.427Z" fill="black"/>
<path d="M241.283 137.346C245.363 137.151 249.43 137.046 253.509 136.968C257.589 136.89 261.656 136.89 265.735 136.851C269.815 136.89 273.882 136.89 277.961 136.968C282.041 137.046 286.108 137.138 290.187 137.346C286.108 137.555 282.041 137.646 277.961 137.725C273.882 137.803 269.815 137.803 265.735 137.842C261.656 137.803 257.589 137.803 253.509 137.725C249.43 137.646 245.363 137.555 241.283 137.346Z" fill="#C7C7C7"/>
<path d="M241.283 142.408C244.343 142.212 247.403 142.108 250.476 142.03C253.535 141.951 256.595 141.951 259.668 141.912C262.728 141.951 265.788 141.951 268.86 142.03C271.92 142.108 274.98 142.199 278.053 142.408C274.993 142.617 271.933 142.708 268.86 142.786C265.801 142.865 262.741 142.865 259.668 142.904C256.608 142.865 253.548 142.865 250.476 142.786C247.416 142.708 244.356 142.617 241.283 142.408Z" fill="#C7C7C7"/>
<path d="M301.302 148.747H241.283V203H301.302V148.747Z" fill="#FFC727"/>
<path opacity="0.2" d="M301.302 148.747H241.283V203H301.302V148.747Z" fill="black"/>
<path opacity="0.6" d="M247.259 169.149C246.526 172.984 249.835 176.272 253.666 175.541C255.81 175.137 257.536 173.415 257.942 171.276C258.674 167.44 255.366 164.153 251.534 164.884C249.39 165.288 247.664 167.01 247.259 169.149Z" fill="white"/>
<path d="M261.081 195.147H301.302L281.191 170.428L261.081 195.147Z" fill="#FFC727"/>
<path opacity="0.4" d="M261.081 195.147H301.302L281.191 170.428L261.081 195.147Z" fill="black"/>
<path d="M241.283 195.173H276.941L259.119 179.063L241.283 195.173Z" fill="#FFC727"/>
<path opacity="0.3" d="M241.283 195.173H276.941L259.119 179.063L241.283 195.173Z" fill="black"/>
<path opacity="0.1" d="M301.302 195.147H241.283V202.987H301.302V195.147Z" fill="black"/>
<path d="M226.939 173.376H166.92V202.987H226.939V173.376Z" fill="#FFC727"/>
<path opacity="0.6" d="M172.896 183.42C172.164 187.255 175.472 190.543 179.303 189.812C181.447 189.408 183.173 187.686 183.579 185.546C184.311 181.724 181.003 178.424 177.172 179.155C175.027 179.559 173.301 181.281 172.896 183.42Z" fill="white"/>
<path d="M221.708 202.987H191.947L193.425 201.174L206.828 184.698L221.708 202.987Z" fill="#FFC727"/>
<path opacity="0.2" d="M221.708 202.987H191.947L193.425 201.174L206.828 184.698L221.708 202.987Z" fill="black"/>
<path d="M195.452 202.987H174.06L184.756 193.347L193.425 201.174L195.452 202.987Z" fill="#FFC727"/>
<path opacity="0.1" d="M195.452 202.987H174.06L184.756 193.347L193.425 201.174L195.452 202.987Z" fill="black"/>
<path d="M166.92 155.113H226.939V84.5289L166.92 84.5289V155.113Z" fill="#455A64"/>
<path opacity="0.6" d="M172.896 104.944C172.164 108.779 175.472 112.066 179.303 111.336C181.447 110.931 183.173 109.209 183.579 107.07C184.311 103.248 181.003 99.9477 177.172 100.678C175.027 101.083 173.301 102.805 172.896 104.944Z" fill="white"/>
<path d="M186.717 130.941H226.939L206.828 106.209L186.717 130.941Z" fill="#263238"/>
<path d="M166.92 130.955H202.591L184.756 114.858L166.92 130.955Z" fill="#37474F"/>
<path d="M226.939 130.942H166.92V155.113H226.939V130.942Z" fill="#37474F"/>
<path d="M166.92 162.131C171 161.936 175.066 161.831 179.146 161.753C183.226 161.675 187.292 161.675 191.372 161.635C195.452 161.675 199.518 161.675 203.598 161.753C207.678 161.831 211.744 161.922 215.824 162.131C211.744 162.34 207.678 162.431 203.598 162.509C199.518 162.588 195.452 162.588 191.372 162.627C187.292 162.588 183.226 162.588 179.146 162.509C175.066 162.431 171 162.34 166.92 162.131Z" fill="#C7C7C7"/>
<path d="M166.92 167.206C169.98 167.01 173.039 166.906 176.112 166.827C179.172 166.749 182.232 166.749 185.305 166.71C188.365 166.749 191.424 166.749 194.497 166.827C197.557 166.906 200.617 166.997 203.69 167.206C200.63 167.414 197.57 167.506 194.497 167.584C191.437 167.662 188.378 167.662 185.305 167.701C182.245 167.662 179.185 167.662 176.112 167.584C173.053 167.506 169.993 167.414 166.92 167.206Z" fill="#C7C7C7"/>
<path d="M92.8181 130.315H152.837V84.3723H92.8181V130.315Z" fill="#FFC727"/>
<path opacity="0.6" d="M98.7805 94.4295C98.0483 98.2646 101.357 101.552 105.188 100.821C107.332 100.417 109.058 98.6951 109.464 96.5558C110.196 92.7207 106.888 89.4334 103.056 90.1639C100.912 90.5683 99.1859 92.2902 98.7805 94.4295Z" fill="white"/>
<path d="M112.615 120.428H152.824L132.713 95.6951L112.615 120.428Z" fill="#FFC727"/>
<path opacity="0.2" d="M112.615 120.428H152.824L132.713 95.6951L112.615 120.428Z" fill="black"/>
<path d="M92.8052 120.441H128.476L110.641 104.344L92.8052 120.441Z" fill="#FFC727"/>
<path opacity="0.1" d="M92.8052 120.441H128.476L110.641 104.344L92.8052 120.441Z" fill="black"/>
<path d="M152.824 120.427H92.8052V130.328H152.824V120.427Z" fill="#FFC727"/>
<path opacity="0.1" d="M152.824 120.427H92.8052V130.328H152.824V120.427Z" fill="black"/>
<path d="M92.8052 137.346C96.8849 137.151 100.952 137.046 105.031 136.968C109.111 136.89 113.178 136.89 117.257 136.851C121.337 136.89 125.404 136.89 129.483 136.968C133.563 137.046 137.63 137.138 141.709 137.346C137.63 137.555 133.563 137.646 129.483 137.725C125.404 137.803 121.337 137.803 117.257 137.842C113.178 137.803 109.111 137.803 105.031 137.725C100.952 137.646 96.8849 137.555 92.8052 137.346Z" fill="#C7C7C7"/>
<path d="M92.8052 142.408C95.865 142.212 98.9247 142.108 101.998 142.03C105.057 141.951 108.117 141.951 111.19 141.912C114.25 141.951 117.31 141.951 120.382 142.03C123.442 142.108 126.502 142.199 129.575 142.408C126.515 142.617 123.455 142.708 120.382 142.786C117.323 142.865 114.263 142.865 111.19 142.904C108.13 142.865 105.07 142.865 101.998 142.786C98.9378 142.708 95.878 142.617 92.8052 142.408Z" fill="#C7C7C7"/>
<path d="M152.824 148.747H92.8052V203H152.824V148.747Z" fill="#FFC727"/>
<path opacity="0.2" d="M152.824 148.747H92.8052V203H152.824V148.747Z" fill="black"/>
<path opacity="0.6" d="M98.7805 169.149C98.0483 172.984 101.357 176.272 105.188 175.541C107.332 175.137 109.058 173.415 109.464 171.276C110.196 167.44 106.888 164.153 103.056 164.884C100.912 165.288 99.1859 167.01 98.7805 169.149Z" fill="white"/>
<path d="M112.615 195.147H152.824L132.713 170.428L112.615 195.147Z" fill="#FFC727"/>
<path opacity="0.4" d="M112.615 195.147H152.824L132.713 170.428L112.615 195.147Z" fill="black"/>
<path d="M92.8052 195.173H128.476L110.641 179.063L92.8052 195.173Z" fill="#FFC727"/>
<path opacity="0.3" d="M92.8052 195.173H128.476L110.641 179.063L92.8052 195.173Z" fill="black"/>
<path opacity="0.1" d="M152.824 195.147H92.8052V202.987H152.824V195.147Z" fill="black"/>
<path d="M78.4738 173.376H18.4551V202.987H78.4738V173.376Z" fill="#FFC727"/>
<path opacity="0.6" d="M24.4182 183.42C23.686 187.255 26.9942 190.543 30.8255 189.812C32.9699 189.408 34.696 187.686 35.1013 185.546C35.8336 181.724 32.5253 178.424 28.6941 179.155C26.5496 179.559 24.8236 181.281 24.4182 183.42Z" fill="white"/>
<path d="M73.2434 202.987H43.4824L44.96 201.174L58.3629 184.698L73.2434 202.987Z" fill="#FFC727"/>
<path opacity="0.2" d="M73.2434 202.987H43.4824L44.96 201.174L58.3629 184.698L73.2434 202.987Z" fill="black"/>
<path d="M46.9735 202.987H25.5942L36.2773 193.347L44.9598 201.174L46.9735 202.987Z" fill="#FFC727"/>
<path opacity="0.1" d="M46.9735 202.987H25.5942L36.2773 193.347L44.9598 201.174L46.9735 202.987Z" fill="black"/>
<path d="M18.4422 155.113H78.4609L78.4609 84.5289L18.4422 84.5289L18.4422 155.113Z" fill="#455A64"/>
<path opacity="0.6" d="M24.4182 104.944C23.686 108.779 26.9942 112.066 30.8255 111.336C32.9699 110.931 34.696 109.209 35.1013 107.07C35.8336 103.248 32.5253 99.9477 28.6941 100.678C26.5496 101.083 24.8236 102.805 24.4182 104.944Z" fill="white"/>
<path d="M38.2524 130.941H78.4742L58.3633 106.209L38.2524 130.941Z" fill="#263238"/>
<path d="M18.4551 130.955H54.1133L36.2776 114.858L18.4551 130.955Z" fill="#37474F"/>
<path d="M78.4738 130.942H18.4551V155.113H78.4738V130.942Z" fill="#37474F"/>
<path d="M18.4551 162.131C22.5348 161.936 26.6014 161.831 30.6811 161.753C34.7608 161.675 38.8275 161.675 42.9072 161.635C46.9869 161.675 51.0535 161.675 55.1332 161.753C59.2129 161.831 63.2796 161.922 67.3593 162.131C63.2796 162.34 59.2129 162.431 55.1332 162.509C51.0535 162.588 46.9869 162.588 42.9072 162.627C38.8275 162.588 34.7608 162.588 30.6811 162.509C26.6014 162.431 22.5348 162.34 18.4551 162.131Z" fill="#C7C7C7"/>
<path d="M18.4551 167.206C21.5149 167.01 24.5746 166.906 27.6475 166.827C30.7073 166.749 33.7671 166.749 36.8399 166.71C39.8997 166.749 42.9595 166.749 46.0323 166.827C49.0921 166.906 52.1519 166.997 55.2247 167.206C52.165 167.414 49.1052 167.506 46.0323 167.584C42.9725 167.662 39.9128 167.662 36.8399 167.701C33.7801 167.662 30.7204 167.662 27.6475 167.584C24.5877 167.506 21.5279 167.414 18.4551 167.206Z" fill="#C7C7C7"/>
<path d="M281.348 60.4225V64.2446C281.348 64.2446 281.348 64.2577 281.348 64.2707C281.269 64.662 281.047 64.9099 280.668 65.0273C280.628 65.0273 280.602 65.0403 280.563 65.0534H279.517C279.517 65.0534 279.517 65.0142 279.517 64.9882V62.9923H280.354C280.354 62.9923 280.406 62.9923 280.406 62.9401V62.1314C280.406 62.1314 280.406 62.1053 280.406 62.0792H279.517C279.517 61.9357 279.517 61.8053 279.517 61.6618C279.517 61.5705 279.595 61.4661 279.726 61.4791C279.935 61.4791 280.132 61.4791 280.341 61.4791C280.354 61.4791 280.38 61.4791 280.393 61.4791V60.5791H279.7C279.504 60.5791 279.321 60.6313 279.164 60.7487C278.889 60.9443 278.732 61.2183 278.693 61.5444C278.667 61.714 278.68 61.8835 278.667 62.0401V62.0922H278.013V62.1183V62.9662C278.013 62.9662 278.026 63.0054 278.052 63.0054H278.667V65.0664H276.797C276.797 65.0664 276.797 65.0664 276.784 65.0664C276.666 65.0403 276.549 65.0012 276.431 64.936C276.235 64.8055 276.104 64.6359 276.039 64.4142C276.026 64.362 276.013 64.3098 276 64.2577V60.4356C276 60.4356 276 60.4225 276 60.4095C276.026 60.279 276.065 60.1747 276.13 60.0573C276.248 59.8616 276.418 59.7181 276.64 59.6529C276.693 59.6399 276.745 59.6268 276.784 59.6138H280.537C280.537 59.6138 280.55 59.6138 280.563 59.6138C280.942 59.692 281.204 59.9268 281.308 60.3182C281.308 60.3573 281.321 60.3834 281.335 60.4225H281.348Z" fill="white"/>
<path d="M290.514 59.6138H286.8C286.343 59.6138 285.977 59.9921 285.977 60.4486V64.2316C285.977 64.6881 286.343 65.0664 286.8 65.0664H290.514C290.959 65.0664 291.338 64.6881 291.338 64.2316V60.4486C291.338 59.9921 290.972 59.6138 290.514 59.6138ZM290.762 60.9965C290.762 60.9965 290.736 61.0226 290.736 61.0487C290.632 61.1922 290.514 61.3096 290.383 61.4139C290.344 61.44 290.344 61.4661 290.344 61.5052C290.344 61.9488 290.252 62.3662 290.043 62.7575C289.703 63.4098 289.193 63.8402 288.487 64.0229C287.99 64.1403 287.506 64.1272 287.023 63.9576C286.996 63.9576 286.983 63.9576 286.957 63.9446C286.879 63.9055 286.787 63.8663 286.709 63.8272C286.643 63.788 286.591 63.762 286.526 63.7228C286.996 63.762 287.402 63.6315 287.794 63.3445C287.729 63.3445 287.663 63.3184 287.611 63.3054C287.323 63.2402 287.114 63.0575 287.01 62.7836C287.01 62.7706 286.996 62.7445 287.01 62.7314C287.01 62.7184 287.036 62.7314 287.062 62.7314C287.166 62.7314 287.271 62.7314 287.376 62.7053C287.336 62.6662 287.297 62.6662 287.258 62.6532C286.944 62.5358 286.709 62.2096 286.696 61.8966C286.696 61.8444 286.718 61.827 286.761 61.8444C286.866 61.8835 286.957 61.9096 287.088 61.9227C287.01 61.8574 286.931 61.7922 286.879 61.714C286.67 61.4139 286.643 61.1009 286.8 60.7747C286.813 60.7356 286.826 60.7226 286.866 60.7747C287.245 61.2313 287.742 61.5183 288.317 61.6357C288.396 61.6487 288.487 61.6618 288.566 61.6748C288.618 61.6748 288.631 61.6748 288.618 61.6096C288.539 61.1139 288.866 60.6573 289.35 60.5921C289.625 60.553 289.873 60.6312 290.082 60.8269C290.109 60.853 290.135 60.8661 290.161 60.853C290.305 60.8139 290.435 60.7747 290.566 60.7095C290.592 60.6965 290.619 60.6704 290.645 60.6443C290.645 60.7095 290.592 60.8269 290.514 60.9313C290.449 61.0095 290.383 61.0748 290.292 61.14C290.449 61.1269 290.605 61.0748 290.749 61.0226L290.762 60.9965Z" fill="white"/>
<path d="M301.289 62.2749C301.289 61.8314 301.289 61.4009 301.289 60.9574C301.289 60.853 301.289 60.7487 301.262 60.6443C301.197 60.1877 300.949 59.8616 300.53 59.692C300.321 59.6138 300.099 59.6138 299.876 59.6138H297.366C297.235 59.6138 297.091 59.6138 296.96 59.6399C296.529 59.7051 296.215 59.9529 296.045 60.3704C295.967 60.566 295.954 60.7878 295.954 60.9965C295.954 61.8835 295.954 62.7706 295.954 63.6576C295.954 63.8011 295.954 63.9446 295.993 64.0881C296.058 64.4664 296.267 64.7403 296.607 64.9229C296.817 65.0273 297.052 65.0534 297.274 65.0534C298.163 65.0534 299.053 65.0534 299.929 65.0534C300.059 65.0534 300.203 65.0534 300.334 65.0142C300.752 64.936 301.04 64.6881 301.197 64.2968C301.276 64.1011 301.289 63.8794 301.289 63.6706C301.289 63.201 301.289 62.7445 301.289 62.2749ZM300.609 63.0706C300.609 63.6967 300.216 64.1924 299.628 64.3229C299.55 64.3359 299.458 64.349 299.366 64.349C298.883 64.349 298.386 64.349 297.902 64.349C297.3 64.349 296.804 63.9446 296.686 63.3445C296.673 63.2663 296.66 63.175 296.66 63.0836C296.66 62.5749 296.66 62.0792 296.66 61.5835C296.66 60.9835 297.039 60.4878 297.588 60.3573C297.693 60.3312 297.797 60.3182 297.902 60.3182C298.15 60.3182 298.386 60.3182 298.621 60.3182C298.909 60.3182 299.183 60.3182 299.471 60.3182C299.994 60.3443 300.465 60.7617 300.569 61.2835C300.596 61.3748 300.596 61.4791 300.596 61.5705C300.596 62.0662 300.596 62.5619 300.596 63.0576L300.609 63.0706Z" fill="white"/>
<path d="M299.275 62.3397C299.275 62.705 298.987 62.992 298.621 62.992C298.268 62.992 297.98 62.6919 297.98 62.3397C297.98 61.9875 298.268 61.6875 298.621 61.6875C298.974 61.6875 299.262 61.9745 299.262 62.3397H299.275Z" fill="white"/>
<path d="M299.379 60.6572C298.882 60.6572 298.372 60.6572 297.875 60.6572C297.379 60.6572 296.986 61.0616 296.986 61.5573V63.0835C296.986 63.5923 297.379 63.9836 297.875 63.9836H299.379C299.876 63.9836 300.255 63.5792 300.268 63.0835V61.5573C300.268 61.0486 299.876 60.6572 299.379 60.6572ZM298.621 63.3314C298.085 63.3314 297.64 62.8748 297.64 62.3269C297.64 61.7791 298.085 61.3225 298.621 61.3225C299.157 61.3225 299.602 61.766 299.602 62.3269C299.602 62.8748 299.157 63.3314 298.621 63.3314ZM299.706 61.479C299.575 61.479 299.471 61.3616 299.471 61.2312C299.471 61.0877 299.575 60.9833 299.719 60.9833C299.85 60.9833 299.955 61.1007 299.955 61.2312C299.955 61.3616 299.85 61.466 299.706 61.466V61.479Z" fill="white"/>
<path d="M101.631 61.7139H102.233L102.612 62.8096L102.991 61.7139H103.593L103.03 63.227L103.449 64.2967L104.39 61.7139H105.096L103.737 65.0402H103.187L102.612 63.6445L102.037 65.0402H101.487L100.141 61.7139H100.834L101.788 64.2967L102.207 63.227L101.644 61.7139H101.631Z" fill="white"/>
<path d="M106.195 65.0661C105.999 65.0661 105.816 65.0269 105.659 64.9617C105.502 64.8965 105.358 64.8052 105.253 64.6878C105.149 64.5704 105.057 64.4399 104.992 64.2834C104.927 64.1268 104.9 63.9703 104.9 63.8007C104.9 63.6311 104.927 63.4616 104.992 63.3181C105.057 63.1615 105.136 63.0311 105.253 62.9137C105.371 62.7963 105.502 62.705 105.659 62.6398C105.816 62.5745 105.999 62.5354 106.195 62.5354C106.391 62.5354 106.574 62.5745 106.731 62.6398C106.888 62.705 107.019 62.7963 107.136 62.9137C107.254 63.0311 107.333 63.1615 107.398 63.3181C107.463 63.4746 107.489 63.6311 107.489 63.8007C107.489 63.9703 107.463 64.1268 107.398 64.2834C107.333 64.4399 107.254 64.5704 107.149 64.6878C107.045 64.8052 106.901 64.8965 106.744 64.9617C106.587 65.0269 106.404 65.0661 106.208 65.0661H106.195ZM105.554 63.8007C105.554 63.9051 105.567 64.0094 105.606 64.1008C105.646 64.1921 105.685 64.2703 105.737 64.3356C105.79 64.4008 105.868 64.453 105.946 64.4921C106.025 64.5312 106.103 64.5443 106.195 64.5443C106.286 64.5443 106.365 64.5312 106.443 64.4921C106.522 64.453 106.587 64.4008 106.653 64.3356C106.705 64.2703 106.757 64.1921 106.783 64.1008C106.823 64.0094 106.836 63.9051 106.836 63.8007C106.836 63.6964 106.823 63.592 106.783 63.5007C106.744 63.4094 106.705 63.3311 106.653 63.2659C106.6 63.2007 106.522 63.1485 106.443 63.1094C106.365 63.0702 106.286 63.0572 106.195 63.0572C106.103 63.0572 106.025 63.0702 105.946 63.1094C105.868 63.1485 105.803 63.2007 105.737 63.2659C105.685 63.3311 105.633 63.4094 105.606 63.5007C105.567 63.592 105.554 63.6833 105.554 63.8007Z" fill="white"/>
<path d="M109.373 63.1094C109.177 63.1094 109.007 63.1485 108.863 63.2137C108.719 63.2789 108.601 63.3963 108.536 63.5268V65.0139H107.908V62.5615H108.484V63.0833C108.523 63.005 108.575 62.9267 108.64 62.8615C108.706 62.7963 108.758 62.7311 108.837 62.6919C108.902 62.6398 108.98 62.6006 109.046 62.5745C109.111 62.5484 109.19 62.5354 109.255 62.5354H109.333C109.333 62.5354 109.373 62.5354 109.386 62.5354V63.1094H109.373Z" fill="white"/>
<path d="M111.4 65.0272L110.681 63.9575L110.341 64.2836V65.0141H109.713V61.5964H110.341V63.6705L111.321 62.5617H111.988L111.073 63.6053L112.053 65.0141H111.387L111.4 65.0272Z" fill="white"/>
<g opacity="0.4">
<path d="M138.924 61.7014H139.199L140.585 65.0278H140.232L139.801 63.9842H138.297L137.865 65.0278H137.512L138.911 61.7014H138.924ZM139.735 63.7233L139.068 62.0797L138.388 63.7233H139.735Z" fill="white"/>
<path d="M142.193 65.0663C141.997 65.0663 141.827 65.0141 141.657 64.9228C141.5 64.8315 141.369 64.7011 141.278 64.5445V65.0141H140.99V61.5964H141.304V63.0835C141.409 62.9139 141.539 62.7835 141.696 62.6791C141.853 62.5748 142.023 62.5226 142.232 62.5226C142.402 62.5226 142.559 62.5617 142.69 62.627C142.821 62.6922 142.939 62.7965 143.043 62.9139C143.148 63.0313 143.213 63.1748 143.265 63.3183C143.318 63.4749 143.344 63.6314 143.344 63.7879C143.344 63.9575 143.318 64.1271 143.252 64.2706C143.187 64.4271 143.109 64.5576 143.004 64.675C142.899 64.7924 142.782 64.8837 142.638 64.9489C142.494 65.0141 142.337 65.0533 142.18 65.0533L142.193 65.0663ZM142.115 64.7793C142.246 64.7793 142.376 64.7532 142.481 64.7011C142.586 64.6489 142.69 64.5706 142.769 64.4793C142.847 64.388 142.912 64.2836 142.952 64.1662C142.991 64.0488 143.017 63.9314 143.017 63.801C143.017 63.6705 142.991 63.5531 142.952 63.4357C142.912 63.3183 142.847 63.214 142.769 63.1227C142.69 63.0313 142.599 62.9531 142.494 62.9009C142.389 62.8487 142.272 62.8226 142.141 62.8226C142.049 62.8226 141.958 62.8357 141.866 62.8748C141.788 62.9139 141.709 62.9531 141.631 63.0053C141.553 63.0574 141.5 63.1227 141.435 63.2009C141.383 63.2792 141.33 63.3575 141.291 63.4357V64.1923C141.291 64.2706 141.343 64.3619 141.396 64.4271C141.448 64.5054 141.513 64.5576 141.592 64.6228C141.67 64.675 141.749 64.7141 141.84 64.7532C141.932 64.7924 142.01 64.8054 142.102 64.8054L142.115 64.7793Z" fill="white"/>
<path d="M144.939 65.0665C144.756 65.0665 144.599 65.0274 144.456 64.9622C144.312 64.897 144.181 64.8057 144.076 64.6883C143.972 64.5709 143.88 64.4404 143.828 64.2839C143.762 64.1273 143.736 63.9708 143.736 63.8012C143.736 63.6316 143.762 63.4621 143.828 63.3186C143.893 63.162 143.972 63.0316 144.076 62.9142C144.181 62.7968 144.312 62.7055 144.456 62.6402C144.599 62.575 144.769 62.5359 144.939 62.5359C145.109 62.5359 145.279 62.575 145.423 62.6402C145.567 62.7055 145.698 62.7968 145.802 62.9142C145.907 63.0316 145.998 63.162 146.051 63.3186C146.116 63.4751 146.142 63.6316 146.142 63.8012C146.142 63.9708 146.116 64.1273 146.051 64.2839C145.985 64.4404 145.907 64.5709 145.802 64.6883C145.698 64.8057 145.567 64.897 145.423 64.9622C145.279 65.0274 145.109 65.0665 144.926 65.0665H144.939ZM144.05 63.8143C144.05 63.9578 144.076 64.0752 144.116 64.1926C144.168 64.31 144.22 64.4143 144.312 64.5056C144.39 64.5969 144.482 64.6622 144.599 64.7143C144.704 64.7665 144.822 64.7926 144.939 64.7926C145.057 64.7926 145.175 64.7665 145.279 64.7143C145.384 64.6622 145.475 64.5969 145.567 64.5056C145.645 64.4143 145.711 64.31 145.763 64.1926C145.815 64.0752 145.828 63.9447 145.828 63.8143C145.828 63.6838 145.802 63.5534 145.763 63.436C145.711 63.3186 145.658 63.2142 145.567 63.1229C145.489 63.0316 145.397 62.9664 145.279 62.9142C145.175 62.862 145.057 62.8359 144.939 62.8359C144.822 62.8359 144.704 62.862 144.599 62.9142C144.495 62.9664 144.403 63.0316 144.312 63.1229C144.233 63.2142 144.168 63.3186 144.116 63.436C144.063 63.5534 144.05 63.6838 144.05 63.8273V63.8143Z" fill="white"/>
<path d="M147.45 65.0666C147.189 65.0666 146.992 64.9753 146.862 64.8057C146.731 64.6231 146.666 64.3622 146.666 64.023V62.5881H146.979V63.9709C146.979 64.5187 147.162 64.8057 147.542 64.8057C147.633 64.8057 147.725 64.7927 147.816 64.7535C147.908 64.7275 147.986 64.6753 148.065 64.6231C148.143 64.5579 148.208 64.4926 148.274 64.4144C148.339 64.3361 148.378 64.2448 148.418 64.1404V62.6012H148.732V64.6231C148.732 64.7144 148.771 64.7535 148.849 64.7535V65.0405C148.849 65.0405 148.784 65.0405 148.758 65.0405H148.705C148.627 65.0405 148.575 65.0144 148.522 64.9623C148.47 64.9101 148.457 64.8449 148.457 64.7666V64.4796C148.352 64.6753 148.208 64.8188 148.025 64.9231C147.842 65.0275 147.646 65.0797 147.437 65.0797L147.45 65.0666Z" fill="white"/>
<path d="M150.653 64.9099C150.653 64.9099 150.601 64.936 150.575 64.949C150.536 64.962 150.497 64.9751 150.444 65.0012C150.392 65.0142 150.34 65.0273 150.287 65.0403C150.222 65.0403 150.17 65.0534 150.104 65.0534C150.039 65.0534 149.973 65.0534 149.908 65.0273C149.843 65.0142 149.79 64.9751 149.738 64.936C149.686 64.8968 149.66 64.8446 149.62 64.7925C149.594 64.7272 149.581 64.662 149.581 64.5837V62.8358H149.241V62.5879H149.581V61.7661H149.895V62.5879H150.457V62.8358H149.895V64.4924C149.895 64.5837 149.934 64.649 149.987 64.6881C150.039 64.7272 150.117 64.7533 150.183 64.7533C150.274 64.7533 150.353 64.7403 150.418 64.7142C150.483 64.6881 150.536 64.662 150.549 64.649L150.627 64.9099H150.653Z" fill="white"/>
</g>
<g opacity="0.4">
<path d="M178.754 62.3275C178.662 62.2231 178.532 62.1318 178.375 62.0666C178.218 62.0013 178.035 61.9622 177.839 61.9622C177.538 61.9622 177.329 62.0144 177.198 62.1318C177.067 62.2492 177.002 62.3927 177.002 62.5883C177.002 62.6927 177.015 62.771 177.054 62.8362C177.093 62.9014 177.146 62.9536 177.224 63.0058C177.302 63.058 177.394 63.0971 177.512 63.1232C177.629 63.1623 177.773 63.1884 177.93 63.2275C178.113 63.2667 178.27 63.3058 178.414 63.358C178.558 63.4102 178.675 63.4623 178.78 63.5276C178.885 63.5928 178.963 63.6841 179.015 63.7884C179.068 63.8928 179.094 64.0102 179.094 64.1667C179.094 64.3233 179.068 64.4537 179.002 64.5711C178.937 64.6885 178.859 64.7798 178.754 64.8581C178.649 64.9364 178.519 64.9886 178.375 65.0277C178.231 65.0668 178.061 65.0799 177.891 65.0799C177.381 65.0799 176.923 64.9233 176.557 64.5972L176.727 64.3363C176.727 64.3363 176.858 64.4537 176.936 64.5189C177.015 64.5711 177.106 64.6233 177.211 64.6624C177.316 64.7016 177.42 64.7407 177.538 64.7668C177.656 64.7929 177.773 64.8059 177.904 64.8059C178.165 64.8059 178.375 64.7538 178.532 64.6624C178.675 64.5711 178.754 64.4276 178.754 64.232C178.754 64.1276 178.728 64.0363 178.689 63.9711C178.649 63.9058 178.584 63.8406 178.492 63.7884C178.414 63.7363 178.309 63.6971 178.179 63.658C178.048 63.6189 177.904 63.5797 177.747 63.5406C177.577 63.5015 177.42 63.4623 177.289 63.4102C177.159 63.371 177.041 63.3058 176.949 63.2406C176.858 63.1754 176.792 63.0971 176.74 63.0058C176.701 62.9145 176.675 62.7971 176.675 62.6666C176.675 62.5101 176.701 62.3796 176.766 62.2622C176.819 62.1448 176.91 62.0405 177.015 61.9622C177.119 61.8839 177.25 61.8187 177.394 61.7796C177.538 61.7404 177.695 61.7144 177.878 61.7144C178.1 61.7144 178.296 61.7535 178.466 61.8187C178.636 61.8839 178.793 61.9753 178.937 62.1057L178.78 62.3666L178.754 62.3275Z" fill="white"/>
<path d="M181.657 65.0271H181.343V63.6704C181.343 63.3965 181.291 63.1878 181.199 63.0443C181.108 62.9008 180.964 62.8356 180.781 62.8356C180.689 62.8356 180.598 62.8486 180.506 62.8877C180.415 62.9269 180.336 62.9791 180.258 63.0312C180.179 63.0965 180.114 63.1617 180.049 63.253C179.996 63.3313 179.944 63.4356 179.918 63.5269V65.0271H179.604V61.6094H179.918V63.1356C180.009 62.953 180.153 62.8095 180.323 62.7051C180.493 62.6008 180.676 62.5486 180.885 62.5486C181.029 62.5486 181.147 62.5747 181.239 62.6269C181.33 62.679 181.408 62.7443 181.474 62.8486C181.539 62.9399 181.578 63.0573 181.605 63.1747C181.631 63.3052 181.644 63.4487 181.644 63.6052V65.0401L181.657 65.0271Z" fill="white"/>
<path d="M183.369 65.0661C183.186 65.0661 183.03 65.0269 182.886 64.9617C182.742 64.8965 182.611 64.8052 182.506 64.6878C182.402 64.5704 182.31 64.4399 182.258 64.2834C182.193 64.1268 182.167 63.9703 182.167 63.8007C182.167 63.6311 182.193 63.4616 182.258 63.3181C182.323 63.1615 182.402 63.0311 182.506 62.9137C182.611 62.7963 182.742 62.705 182.886 62.6398C183.03 62.5745 183.2 62.5354 183.369 62.5354C183.539 62.5354 183.709 62.5745 183.853 62.6398C183.997 62.705 184.128 62.7963 184.233 62.9137C184.337 63.0311 184.429 63.1615 184.481 63.3181C184.546 63.4746 184.572 63.6311 184.572 63.8007C184.572 63.9703 184.546 64.1268 184.481 64.2834C184.416 64.4399 184.337 64.5704 184.233 64.6878C184.128 64.8052 183.997 64.8965 183.853 64.9617C183.709 65.0269 183.539 65.0661 183.356 65.0661H183.369ZM182.48 63.8138C182.48 63.9573 182.506 64.0747 182.546 64.1921C182.598 64.3095 182.65 64.4138 182.742 64.5051C182.833 64.5964 182.912 64.6617 183.03 64.7139C183.134 64.766 183.252 64.7921 183.369 64.7921C183.487 64.7921 183.605 64.766 183.709 64.7139C183.814 64.6617 183.906 64.5964 183.997 64.5051C184.076 64.4138 184.141 64.3095 184.193 64.1921C184.246 64.0747 184.259 63.9442 184.259 63.8138C184.259 63.6833 184.233 63.5529 184.193 63.4355C184.141 63.3181 184.076 63.2137 183.997 63.1224C183.919 63.0311 183.827 62.9659 183.709 62.9137C183.605 62.8615 183.487 62.8354 183.369 62.8354C183.252 62.8354 183.134 62.8615 183.03 62.9137C182.925 62.9659 182.833 63.0311 182.742 63.1224C182.663 63.2137 182.598 63.3181 182.546 63.4355C182.493 63.5529 182.48 63.6833 182.48 63.8268V63.8138Z" fill="white"/>
<path d="M186.377 65.0662C186.168 65.0662 185.985 65.014 185.828 64.9096C185.671 64.8053 185.54 64.6748 185.449 64.5183V66.0184H185.135V62.5746H185.422V63.0442C185.527 62.8877 185.658 62.7703 185.815 62.6659C185.972 62.5746 186.142 62.5225 186.338 62.5225C186.508 62.5225 186.665 62.5616 186.808 62.6268C186.952 62.692 187.07 62.7964 187.175 62.9138C187.279 63.0312 187.358 63.1616 187.41 63.3182C187.462 63.4747 187.502 63.6312 187.502 63.7878C187.502 63.9574 187.475 64.1269 187.423 64.2704C187.371 64.427 187.292 64.5574 187.201 64.6748C187.109 64.7922 186.978 64.8835 186.848 64.9488C186.717 65.014 186.56 65.0531 186.403 65.0531L186.377 65.0662ZM186.285 64.7792C186.416 64.7792 186.534 64.7531 186.638 64.7009C186.743 64.6487 186.835 64.5705 186.913 64.4792C186.992 64.3878 187.044 64.2835 187.083 64.1661C187.122 64.0487 187.148 63.9313 187.148 63.8008C187.148 63.6704 187.122 63.5399 187.083 63.4225C187.031 63.3051 186.965 63.2008 186.887 63.1095C186.808 63.0182 186.704 62.9529 186.599 62.8877C186.482 62.8355 186.364 62.8094 186.246 62.8094C186.168 62.8094 186.076 62.8225 185.985 62.8616C185.893 62.9008 185.815 62.9399 185.736 62.9921C185.658 63.0442 185.592 63.1095 185.54 63.1877C185.488 63.266 185.449 63.3443 185.436 63.4225V64.1661C185.475 64.2574 185.527 64.3357 185.579 64.4139C185.632 64.4922 185.697 64.5574 185.775 64.6096C185.854 64.6618 185.932 64.7009 186.011 64.74C186.089 64.7792 186.181 64.7922 186.272 64.7922L186.285 64.7792Z" fill="white"/>
</g>
<g opacity="0.4">
<path d="M210.738 63.3444C210.738 63.1487 210.777 62.94 210.842 62.7444C210.908 62.5487 211.012 62.3661 211.156 62.2095C211.287 62.053 211.457 61.9225 211.653 61.8312C211.849 61.7399 212.071 61.6877 212.32 61.6877C212.621 61.6877 212.869 61.753 213.078 61.8834C213.287 62.0139 213.444 62.1965 213.549 62.4052L213.287 62.5617C213.235 62.4574 213.17 62.3661 213.091 62.2878C213.013 62.2095 212.934 62.1574 212.843 62.1052C212.751 62.053 212.66 62.0269 212.568 62.0008C212.477 61.9747 212.385 61.9747 212.294 61.9747C212.097 61.9747 211.914 62.0139 211.757 62.0921C211.601 62.1704 211.47 62.2748 211.365 62.4052C211.261 62.5356 211.182 62.6791 211.13 62.8487C211.078 63.0183 211.051 63.1748 211.051 63.3444C211.051 63.527 211.091 63.7097 211.143 63.8792C211.208 64.0488 211.3 64.1923 211.404 64.3228C211.509 64.4532 211.653 64.5576 211.797 64.6358C211.954 64.7141 212.111 64.7532 212.294 64.7532C212.385 64.7532 212.49 64.7532 212.581 64.7141C212.686 64.688 212.777 64.6489 212.869 64.5967C212.96 64.5445 213.052 64.4793 213.13 64.401C213.209 64.3228 213.274 64.2314 213.327 64.1271L213.601 64.2706C213.549 64.401 213.47 64.5054 213.379 64.5967C213.287 64.688 213.17 64.7663 213.052 64.8445C212.934 64.9098 212.804 64.9619 212.673 64.988C212.542 65.0272 212.411 65.0402 212.281 65.0402C212.058 65.0402 211.836 64.988 211.653 64.8967C211.457 64.7924 211.3 64.6619 211.156 64.5054C211.012 64.3488 210.908 64.1662 210.829 63.9575C210.751 63.7488 210.711 63.5401 210.711 63.3314L210.738 63.3444Z" fill="white"/>
<path d="M215.157 65.0663C214.974 65.0663 214.817 65.0272 214.673 64.9619C214.529 64.8967 214.399 64.8054 214.294 64.688C214.189 64.5706 214.098 64.4402 214.046 64.2836C213.98 64.1271 213.954 63.9706 213.954 63.801C213.954 63.6314 213.98 63.4618 214.046 63.3183C214.111 63.1618 214.189 63.0313 214.294 62.9139C214.399 62.7965 214.529 62.7052 214.673 62.64C214.817 62.5748 214.987 62.5356 215.157 62.5356C215.327 62.5356 215.497 62.5748 215.641 62.64C215.785 62.7052 215.916 62.7965 216.02 62.9139C216.125 63.0313 216.216 63.1618 216.269 63.3183C216.334 63.4749 216.36 63.6314 216.36 63.801C216.36 63.9706 216.334 64.1271 216.269 64.2836C216.203 64.4402 216.125 64.5706 216.02 64.688C215.916 64.8054 215.785 64.8967 215.641 64.9619C215.497 65.0272 215.327 65.0663 215.144 65.0663H215.157ZM214.268 63.814C214.268 63.9575 214.294 64.0749 214.333 64.1923C214.386 64.3097 214.438 64.4141 214.529 64.5054C214.621 64.5967 214.699 64.6619 214.817 64.7141C214.922 64.7663 215.039 64.7924 215.157 64.7924C215.275 64.7924 215.392 64.7663 215.497 64.7141C215.602 64.6619 215.693 64.5967 215.785 64.5054C215.863 64.4141 215.929 64.3097 215.981 64.1923C216.033 64.0749 216.046 63.9445 216.046 63.814C216.046 63.6836 216.02 63.5531 215.981 63.4357C215.929 63.3183 215.876 63.214 215.785 63.1227C215.706 63.0313 215.615 62.9661 215.497 62.9139C215.392 62.8618 215.275 62.8357 215.157 62.8357C215.039 62.8357 214.922 62.8618 214.817 62.9139C214.713 62.9661 214.621 63.0313 214.529 63.1227C214.451 63.214 214.386 63.3183 214.333 63.4357C214.281 63.5531 214.268 63.6836 214.268 63.8271V63.814Z" fill="white"/>
<path d="M218.962 65.0271H218.648V63.6704C218.648 63.3834 218.609 63.1747 218.518 63.0443C218.426 62.9138 218.295 62.8486 218.125 62.8486C218.034 62.8486 217.942 62.8617 217.838 62.9008C217.746 62.9399 217.655 62.9791 217.576 63.0443C217.498 63.1095 217.419 63.1747 217.367 63.266C217.302 63.3574 217.262 63.4487 217.236 63.54V65.0401H216.922V62.6008H217.21V63.1486C217.315 62.966 217.458 62.8225 217.642 62.7182C217.825 62.6138 218.034 62.5486 218.243 62.5486C218.374 62.5486 218.491 62.5747 218.583 62.6269C218.675 62.679 218.753 62.7443 218.805 62.8356C218.858 62.9269 218.897 63.0312 218.923 63.1617C218.949 63.2921 218.962 63.4356 218.962 63.5922V65.0271Z" fill="white"/>
<path d="M220.793 64.9096C220.793 64.9096 220.754 64.9357 220.715 64.9488C220.675 64.9618 220.636 64.9748 220.584 65.0009C220.532 65.014 220.479 65.027 220.427 65.0401C220.362 65.0401 220.309 65.0531 220.244 65.0531C220.178 65.0531 220.113 65.0531 220.048 65.027C219.982 65.014 219.93 64.9748 219.878 64.9357C219.825 64.8966 219.799 64.8444 219.76 64.7922C219.721 64.74 219.721 64.6618 219.721 64.5835V62.8355H219.381V62.5877H219.721V61.7659H220.035V62.5877H220.597V62.8355H220.035V64.4922C220.035 64.5835 220.074 64.6487 220.126 64.6879C220.179 64.727 220.244 64.7531 220.322 64.7531C220.414 64.7531 220.492 64.74 220.558 64.714C220.623 64.6879 220.675 64.6618 220.688 64.6487L220.767 64.9096H220.793Z" fill="white"/>
<path d="M221.813 65.0662C221.695 65.0662 221.591 65.0532 221.486 65.014C221.382 64.9749 221.303 64.9227 221.225 64.8575C221.146 64.7923 221.094 64.714 221.055 64.6096C221.015 64.5183 220.989 64.414 220.989 64.3096C220.989 64.2053 221.015 64.1009 221.068 64.0096C221.12 63.9183 221.185 63.84 221.277 63.7748C221.368 63.7096 221.473 63.6574 221.604 63.6182C221.735 63.5791 221.865 63.5661 222.022 63.5661C222.153 63.5661 222.271 63.5661 222.401 63.6052C222.532 63.6313 222.65 63.6574 222.741 63.6965V63.4748C222.741 63.253 222.676 63.0834 222.558 62.966C222.441 62.8356 222.271 62.7703 222.048 62.7703C221.918 62.7703 221.8 62.7964 221.669 62.8486C221.538 62.9008 221.408 62.966 221.264 63.0704L221.146 62.8617C221.46 62.6529 221.774 62.5486 222.061 62.5486C222.349 62.5486 222.611 62.6399 222.781 62.8095C222.951 62.9791 223.042 63.2139 223.042 63.5269V64.6227C223.042 64.714 223.081 64.7531 223.16 64.7531V65.0401C223.16 65.0401 223.068 65.0532 223.042 65.0532C222.964 65.0532 222.898 65.0271 222.846 64.9879C222.794 64.9488 222.781 64.8966 222.768 64.8183V64.6227C222.65 64.7662 222.506 64.8836 222.336 64.9618C222.166 65.0401 221.983 65.0792 221.787 65.0792L221.813 65.0662ZM221.891 64.8183C222.061 64.8183 222.205 64.7923 222.349 64.727C222.493 64.6618 222.598 64.5835 222.663 64.4792C222.689 64.4531 222.715 64.414 222.728 64.3879C222.741 64.3487 222.755 64.3227 222.755 64.2966V63.8922C222.65 63.853 222.532 63.827 222.428 63.8009C222.31 63.7748 222.192 63.7617 222.075 63.7617C221.852 63.7617 221.669 63.8139 221.525 63.9052C221.382 63.9965 221.316 64.127 221.316 64.2705C221.316 64.3487 221.329 64.414 221.355 64.4792C221.382 64.5444 221.421 64.5966 221.473 64.6488C221.525 64.7009 221.591 64.7401 221.656 64.7662C221.722 64.7923 221.8 64.8053 221.891 64.8053V64.8183Z" fill="white"/>
<path d="M223.578 63.801C223.578 63.6314 223.604 63.4618 223.67 63.3183C223.735 63.1618 223.813 63.0313 223.918 62.9139C224.023 62.7965 224.153 62.7052 224.31 62.64C224.454 62.5748 224.624 62.5356 224.807 62.5356C225.043 62.5356 225.239 62.5878 225.409 62.6922C225.579 62.7965 225.709 62.94 225.801 63.1096L225.487 63.214C225.422 63.0835 225.317 62.9922 225.199 62.927C225.082 62.8618 224.938 62.8226 224.794 62.8226C224.663 62.8226 224.559 62.8487 224.441 62.9009C224.336 62.9531 224.245 63.0183 224.153 63.1096C224.075 63.2009 224.01 63.2922 223.97 63.4227C223.931 63.5401 223.905 63.6705 223.905 63.814C223.905 63.9575 223.931 64.0749 223.97 64.2054C224.023 64.3228 224.088 64.4271 224.166 64.5184C224.245 64.6097 224.336 64.675 224.454 64.7271C224.559 64.7793 224.676 64.8054 224.794 64.8054C224.873 64.8054 224.951 64.8054 225.029 64.7663C225.108 64.7402 225.173 64.7141 225.239 64.675C225.304 64.6358 225.356 64.5967 225.409 64.5445C225.461 64.4923 225.487 64.4402 225.513 64.388L225.827 64.4793C225.788 64.5706 225.749 64.6489 225.683 64.7141C225.618 64.7924 225.539 64.8576 225.448 64.9098C225.356 64.9619 225.265 65.0011 225.147 65.0402C225.043 65.0663 224.925 65.0793 224.807 65.0793C224.624 65.0793 224.467 65.0402 224.31 64.975C224.166 64.9098 224.036 64.8185 223.918 64.701C223.813 64.5836 223.722 64.4532 223.656 64.2967C223.591 64.1401 223.565 63.9836 223.565 63.801H223.578Z" fill="white"/>
<path d="M227.501 64.9096C227.501 64.9096 227.448 64.9357 227.422 64.9488C227.383 64.9618 227.344 64.9748 227.305 65.0009C227.252 65.014 227.2 65.027 227.148 65.0401C227.082 65.0401 227.03 65.0531 226.965 65.0531C226.899 65.0531 226.834 65.0531 226.768 65.027C226.703 65.014 226.651 64.9748 226.598 64.9357C226.546 64.8966 226.507 64.8444 226.481 64.7922C226.455 64.727 226.442 64.6618 226.442 64.5835V62.8355H226.102V62.5877H226.442V61.7659H226.755V62.5877H227.318V62.8355H226.755V64.4922C226.755 64.5835 226.795 64.6487 226.847 64.6879C226.899 64.727 226.978 64.7531 227.043 64.7531C227.135 64.7531 227.213 64.74 227.278 64.714C227.344 64.6879 227.396 64.6618 227.409 64.6487L227.488 64.9096H227.501Z" fill="white"/>
</g>
<path d="M112.066 66.0183H100.128V66.527H112.066V66.0183Z" fill="white"/>
<path d="M298.582 25.5413H222.977V35.6117H298.582V25.5413Z" fill="white"/>
<path d="M298.687 35.7159H222.872V25.4368H298.687V35.7159ZM223.081 35.5072H298.49V25.6455H223.081V35.5072Z" fill="#C7C7C7"/>
<path d="M298.687 25.4368H288.383V35.7159H298.687V25.4368Z" fill="#455A64"/>
<path d="M296.739 33.4068L295.81 34.1112L294.084 31.8415L293.457 31.0066C293.587 30.9544 293.705 30.8892 293.823 30.7979C294.045 30.6283 294.202 30.4196 294.306 30.1848L294.973 31.0718L296.752 33.4199L296.739 33.4068Z" fill="white"/>
<path d="M294.895 28.0454C294.045 26.9366 292.436 26.7279 291.325 27.5758C290.213 28.4237 290.004 30.0282 290.854 31.137C291.626 32.1414 292.986 32.4023 294.071 31.8284C294.189 31.7632 294.306 31.6849 294.424 31.6066C294.633 31.4501 294.803 31.2675 294.947 31.0587C295.575 30.1717 295.588 28.9586 294.895 28.0454ZM293.796 30.7979C293.679 30.8892 293.561 30.9544 293.43 31.0066C292.816 31.2544 292.083 31.0718 291.665 30.5239C291.155 29.8586 291.273 28.9064 291.939 28.3976C292.606 27.8889 293.561 28.0193 294.071 28.6846C294.411 29.1281 294.463 29.7021 294.267 30.1978C294.162 30.4326 294.006 30.6544 293.783 30.8109L293.796 30.7979Z" fill="white"/>
<path d="M225.619 27.5239H225.082V33.6288H225.619V27.5239Z" fill="#C7C7C7"/>
<path d="M219.185 25.5413H45.0391V35.6117H219.185V25.5413Z" fill="white"/>
<path d="M219.276 35.7159H44.9336V25.4368H219.276V35.7159ZM45.1297 35.5072H219.066V25.6455H45.1428V35.5072H45.1297Z" fill="#C7C7C7"/>
<path d="M47.6806 27.5239H47.1436V33.6288H47.6806V27.5239Z" fill="#C7C7C7"/>
<path d="M25.9869 34.02L22.3125 30.6545L25.9869 27.1455L26.5491 27.7325L23.5155 30.6415L26.5491 33.42L25.9869 34.02Z" fill="white"/>
<path d="M34.8655 27.1323L38.5398 30.5109L34.8655 34.0199L34.3032 33.4329L37.3369 30.5239L34.3032 27.7324L34.8655 27.1323Z" fill="white"/>
</g>
<g filter="url(#filter1_d_55_7388)">
<path d="M391.693 123H183V254.713H391.693V123Z" fill="white" stroke="#A6A6A6" stroke-width="0.5" stroke-miterlimit="10"/>
<path d="M387.987 128.073H183V161.304H387.987V128.073Z" fill="#005774"/>
<path d="M391.684 128.064H387.987V254.704H391.684V128.064Z" fill="#DBDBDB"/>
<path d="M389.831 171.974C389.305 171.974 388.875 171.544 388.875 171.02V129.767C388.875 129.242 389.305 128.812 389.831 128.812C390.357 128.812 390.788 129.242 390.788 129.767V171.02C390.788 171.544 390.357 171.974 389.831 171.974Z" fill="#A6A6A6"/>
<path d="M377.3 134.246H327.466V140.884H377.3V134.246Z" fill="white"/>
<path d="M377.369 140.953H327.397V134.177H377.369V140.953ZM327.535 140.815H377.239V134.315H327.535V140.815Z" fill="#C7C7C7"/>
<path d="M377.377 134.177H370.585V140.953H377.377V134.177Z" fill="#455A64"/>
<path d="M376.084 139.422L375.472 139.887L374.335 138.391L373.921 137.84C374.007 137.806 374.085 137.763 374.162 137.703C374.309 137.591 374.412 137.453 374.481 137.299L374.921 137.883L376.093 139.431L376.084 139.422Z" fill="white"/>
<path d="M374.878 135.897C374.318 135.166 373.258 135.029 372.525 135.587C371.792 136.146 371.655 137.204 372.215 137.935C372.723 138.597 373.62 138.769 374.335 138.39C374.413 138.347 374.49 138.296 374.568 138.244C374.706 138.141 374.818 138.021 374.912 137.883C375.326 137.298 375.335 136.499 374.878 135.897ZM374.154 137.711C374.076 137.771 373.999 137.814 373.913 137.849C373.508 138.012 373.025 137.892 372.749 137.531C372.413 137.092 372.491 136.464 372.93 136.129C373.37 135.794 373.999 135.88 374.335 136.318C374.559 136.611 374.594 136.989 374.464 137.316C374.395 137.47 374.292 137.617 374.145 137.72L374.154 137.711Z" fill="white"/>
<path d="M329.208 135.553H328.854V139.577H329.208V135.553Z" fill="#C7C7C7"/>
<path d="M324.967 134.246H210.183V140.884H324.967V134.246Z" fill="white"/>
<path d="M325.036 140.953H210.123V134.177H325.036V140.953ZM210.252 140.815H324.898V134.315H210.252V140.815Z" fill="#C7C7C7"/>
<path d="M211.934 135.553H211.58V139.577H211.934V135.553Z" fill="#C7C7C7"/>
<path d="M197.635 139.835L195.204 137.608L197.626 135.295L198.005 135.691L195.997 137.599L197.997 139.439L197.635 139.835Z" fill="white"/>
<path d="M203.478 135.295L205.9 137.522L203.478 139.835L203.107 139.439L205.107 137.531L203.107 135.691L203.478 135.295Z" fill="white"/>
<path d="M261.051 209.083H313.9V168.63H261.051V209.083Z" fill="#FFC727"/>
<path opacity="0.6" d="M266.308 177.468C265.67 180.839 268.575 183.745 271.953 183.1C273.841 182.739 275.366 181.226 275.72 179.343C276.358 175.972 273.453 173.066 270.075 173.711C268.187 174.072 266.662 175.585 266.308 177.468Z" fill="white"/>
<path d="M278.486 200.365H313.901L296.198 178.586L278.486 200.365Z" fill="#FFC727"/>
<path opacity="0.2" d="M278.486 200.365H313.901L296.198 178.586L278.486 200.365Z" fill="black"/>
<path d="M261.051 200.382H292.457L276.754 186.204L261.051 200.382Z" fill="#FFC727"/>
<path opacity="0.1" d="M261.051 200.382H292.457L276.754 186.204L261.051 200.382Z" fill="black"/>
<path d="M313.901 200.365H261.051V209.083H313.901V200.365Z" fill="#FFC727"/>
<path opacity="0.1" d="M313.901 200.365H261.051V209.083H313.901V200.365Z" fill="black"/>
<path d="M222.258 214.672H194.308V217.019H222.258V214.672Z" fill="#A6A6A6"/>
<path d="M313.09 220.115H194.308V222.462H313.09V220.115Z" fill="#EBEBEB"/>
<path d="M313.09 225.282H194.308V227.629H313.09V225.282Z" fill="#EBEBEB"/>
<path d="M313.09 230.441H194.308V232.788H313.09V230.441Z" fill="#EBEBEB"/>
<path d="M313.09 235.6H194.308V237.947H313.09V235.6Z" fill="#EBEBEB"/>
<path d="M313.09 240.767H194.308V243.114H313.09V240.767Z" fill="#EBEBEB"/>
<path d="M349.116 168.974H321.166V171.321H349.116V168.974Z" fill="#A6A6A6"/>
<path d="M380.557 174.416H321.166V176.763H380.557V174.416Z" fill="#EBEBEB"/>
<path d="M380.557 179.583H321.166V181.931H380.557V179.583Z" fill="#EBEBEB"/>
<path d="M380.557 184.742H321.166V187.089H380.557V184.742Z" fill="#EBEBEB"/>
<path d="M380.557 189.901H321.166V192.248H380.557V189.901Z" fill="#EBEBEB"/>
<path d="M380.557 199.471H321.166V201.818H380.557V199.471Z" fill="#EBEBEB"/>
<path d="M380.557 204.638H321.166V206.985H380.557V204.638Z" fill="#EBEBEB"/>
<path d="M380.557 209.797H321.166V212.144H380.557V209.797Z" fill="#EBEBEB"/>
<path d="M380.557 214.956H321.166V217.303H380.557V214.956Z" fill="#EBEBEB"/>
<path d="M380.557 220.115H321.166V222.462H380.557V220.115Z" fill="#EBEBEB"/>
<path d="M380.557 230.441H321.166V232.788H380.557V230.441Z" fill="#EBEBEB"/>
<path d="M361.2 235.6H321.166V237.947H361.2V235.6Z" fill="#EBEBEB"/>
<path d="M362.648 234.121H362.389V239.426H362.648V234.121Z" fill="#263238"/>
<path d="M222.258 168.621H194.308V174.898H222.258V168.621Z" fill="#A6A6A6"/>
<path d="M253.613 179.231H194.308V181.578H253.613V179.231Z" fill="#EBEBEB"/>
<path d="M253.613 184.39H194.308V186.737H253.613V184.39Z" fill="#EBEBEB"/>
<path d="M253.613 189.549H194.308V191.896H253.613V189.549Z" fill="#EBEBEB"/>
<path d="M253.613 194.716H194.308V197.063H253.613V194.716Z" fill="#EBEBEB"/>
<path d="M253.613 201.577H194.308V203.924H253.613V201.577Z" fill="#EBEBEB"/>
<path d="M253.613 206.736H194.308V209.083H253.613V206.736Z" fill="#EBEBEB"/>
<path d="M391.693 123H183V128.073H391.693V123Z" fill="#263238"/>
<path d="M188.119 125.537C188.119 126.138 187.628 126.628 187.025 126.628C186.421 126.628 185.93 126.138 185.93 125.537C185.93 124.935 186.421 124.445 187.025 124.445C187.628 124.445 188.119 124.935 188.119 125.537Z" fill="#C7C7C7"/>
<path d="M192.592 125.537C192.592 126.138 192.101 126.628 191.498 126.628C190.895 126.628 190.403 126.138 190.403 125.537C190.403 124.935 190.895 124.445 191.498 124.445C192.101 124.445 192.592 124.935 192.592 125.537Z" fill="white"/>
<path d="M197.066 125.537C197.066 126.138 196.574 126.628 195.971 126.628C195.368 126.628 194.876 126.138 194.876 125.537C194.876 124.935 195.368 124.445 195.971 124.445C196.574 124.445 197.066 124.935 197.066 125.537Z" fill="#FFC727"/>
</g>
<path d="M337.667 342.432C339.615 343.059 397.076 342.337 399.17 340.97C399.972 340.463 395.938 286.536 395.938 286.536L358.809 286.906L362.765 322.983C362.765 322.983 341.64 332.742 339.494 334.487C337.366 336.224 335.728 341.813 337.676 342.432H337.667Z" fill="#D3766A"/>
<path d="M337.667 342.432C339.615 343.06 397.075 342.337 399.161 340.979C399.532 340.755 398.877 329.174 398.067 316.758H362.066L362.747 322.992C362.747 322.992 341.623 332.742 339.477 334.496C337.348 336.233 335.71 341.821 337.658 342.441L337.667 342.432Z" fill="white"/>
<path d="M337.038 343.223C339.089 343.894 397.11 343.343 399.316 341.916C400.17 341.383 398.937 322.295 398.937 322.192H363.04L363.057 322.828C363.057 322.828 340.761 333.026 338.486 334.857C336.236 336.68 334.969 342.561 337.02 343.223H337.038Z" fill="#00547E"/>
<path d="M337.193 340.953C347.053 340.618 386.854 340.205 396.628 340.626C396.705 340.626 396.705 340.687 396.628 340.687C386.863 341.228 347.062 341.323 337.193 341.116C336.986 341.116 336.986 340.962 337.193 340.953Z" fill="#263238"/>
<path d="M358.852 322.33C362.722 321.573 367.479 322.123 370.47 324.849C370.582 324.952 370.435 325.116 370.306 325.081C366.462 323.912 362.885 323.172 358.869 322.82C358.585 322.794 358.567 322.381 358.852 322.33Z" fill="#263238"/>
<path d="M356.068 324.041C359.938 323.284 364.695 323.834 367.686 326.56C367.798 326.663 367.652 326.827 367.522 326.792C363.678 325.623 360.102 324.883 356.085 324.531C355.801 324.505 355.784 324.092 356.068 324.041Z" fill="#263238"/>
<path d="M353.276 325.752C357.154 324.995 361.903 325.545 364.894 328.271C365.006 328.374 364.859 328.537 364.73 328.503C360.886 327.334 357.309 326.594 353.293 326.242C353.009 326.216 352.991 325.803 353.276 325.752Z" fill="#263238"/>
<path d="M359.007 321.47H398.98C398.98 321.47 392.301 228.99 392.542 227.743C392.939 225.662 395.3 216.23 398.446 203.918C399.429 200.066 400.489 195.931 401.6 191.64C404.583 180.05 407.866 167.385 410.728 156.371C415.02 139.863 418.381 127.035 418.381 127.035H384.501C384.501 127.035 380.554 139.519 375.581 155.769C367.47 182.174 356.637 218.509 355.568 227.348C354.267 238.044 359.016 321.479 359.016 321.479L359.007 321.47Z" fill="#CCEFFA"/>
<path d="M360.86 314.196C366.953 314.067 365.204 314.024 371.297 313.964C374.279 313.938 393.887 313.766 396.671 314.222C396.731 314.23 396.731 314.333 396.671 314.342C393.887 314.798 374.279 314.634 371.297 314.6C365.204 314.54 366.953 314.488 360.86 314.368C360.748 314.368 360.748 314.196 360.86 314.187V314.196Z" fill="#263238"/>
<path d="M412.21 131.609L405.996 153.439L399.929 175.312C397.912 182.604 395.964 189.912 394.016 197.229C392.086 204.546 390.155 211.863 388.362 219.222C387.931 221.071 387.492 222.911 387.13 224.777C387.026 225.241 386.966 225.723 386.88 226.195C386.863 226.453 386.828 226.746 386.837 226.986L386.889 227.691L392.198 308.246L392.163 308.487L392.62 308.212L387.716 227.623L387.664 226.918C387.664 226.694 387.69 226.505 387.707 226.299C387.793 225.843 387.854 225.387 387.949 224.923C388.311 223.083 388.759 221.243 389.19 219.403C392.749 204.709 396.705 190.101 400.558 175.467L412.202 131.592L412.21 131.609Z" fill="#263238"/>
<path d="M385.303 127.026C387.655 145.176 396.162 175.338 399.429 200.032C407.073 170.111 418.364 127.026 418.364 127.026H385.294H385.303Z" fill="#263238"/>
<path d="M466.965 342.148C465 342.759 416.735 342.974 414.649 341.581C413.848 341.065 413.563 332.948 413.494 323.129C413.494 323.026 413.494 322.923 413.494 322.82C413.477 320.799 408.814 286.794 408.814 286.794L445.272 287.534L449.486 323.25L449.46 323.86C449.46 323.86 463.078 332.372 465.215 334.152C467.335 335.923 468.93 341.555 466.965 342.157V342.148Z" fill="#D3766A"/>
<path d="M412.813 316.758C413.227 320.008 413.486 322.33 413.486 322.811V323.121C413.546 332.94 413.83 341.056 414.632 341.572C416.726 342.965 464.991 342.759 466.956 342.148C468.921 341.546 467.327 335.906 465.206 334.143C463.069 332.364 449.46 323.852 449.46 323.852L449.486 323.241L448.719 316.758H412.813Z" fill="white"/>
<path d="M469.343 343.223C467.292 343.894 415.39 343.343 413.175 341.916C412.322 341.383 413.555 322.295 413.555 322.192H449.451L449.434 322.828C449.434 322.828 465.62 333.026 467.887 334.857C470.136 336.68 471.403 342.561 469.352 343.223H469.343Z" fill="#00547E"/>
<path d="M469.188 340.953C459.329 340.618 425.647 340.205 415.873 340.626C415.796 340.626 415.796 340.687 415.873 340.687C425.638 341.228 459.329 341.323 469.188 341.116C469.395 341.116 469.395 340.962 469.188 340.953Z" fill="#263238"/>
<path d="M446.53 323.387C441.617 322.029 435.498 322.038 431.507 324.737C431.352 324.84 431.542 325.047 431.706 325.021C436.696 324.196 441.324 323.826 446.487 323.938C446.849 323.938 446.892 323.482 446.538 323.387H446.53Z" fill="#263238"/>
<path d="M450.003 325.674C445.082 324.316 438.971 324.324 434.98 327.024C434.825 327.127 435.015 327.334 435.179 327.308C440.169 326.483 444.797 326.113 449.96 326.225C450.322 326.225 450.365 325.769 450.011 325.674H450.003Z" fill="#263238"/>
<path d="M453.468 327.961C448.555 326.603 442.436 326.612 438.445 329.311C438.29 329.414 438.48 329.621 438.644 329.595C443.634 328.77 448.262 328.4 453.425 328.512C453.787 328.512 453.83 328.056 453.476 327.961H453.468Z" fill="#263238"/>
<path d="M385.303 127.026C385.303 127.026 390.439 158.262 390.793 159.268C390.793 159.268 392.706 160.171 396.145 161.762L410.194 321.306L450.365 321.47L429.146 127.034H385.311L385.303 127.026Z" fill="#CCEFFA"/>
<path d="M411.572 314.179C417.709 314.076 415.942 314.024 422.087 313.99C425.087 313.972 444.823 313.886 447.633 314.359C447.693 314.368 447.693 314.471 447.633 314.48C444.823 314.935 425.095 314.677 422.087 314.634C415.951 314.548 417.718 314.505 411.581 314.351C411.469 314.351 411.469 314.17 411.581 314.17L411.572 314.179Z" fill="#263238"/>
<path d="M389.12 158.297C393.12 159.879 396.946 162.046 400.601 164.298C400.747 164.384 400.635 164.608 400.48 164.531C396.601 162.656 392.646 160.842 388.879 158.753C388.586 158.589 388.81 158.168 389.112 158.288L389.12 158.297Z" fill="#263238"/>
<path d="M390.603 140.405C391.232 144.145 391.586 147.936 392.008 151.702C392.111 152.605 392.215 153.508 392.318 154.411C392.405 155.236 392.508 156.07 392.973 156.792C393.792 158.048 395.249 158.641 396.567 159.217C396.722 159.286 396.662 159.527 396.49 159.475C395.145 159.054 393.663 158.503 392.672 157.463C391.465 156.191 391.508 154.265 391.319 152.631C390.862 148.59 390.422 144.497 390.439 140.422C390.439 140.327 390.595 140.301 390.612 140.405H390.603Z" fill="#263238"/>
<path d="M395.154 141.548C395.283 144.239 395.585 146.93 395.809 149.622C395.921 150.946 396.016 152.278 396.093 153.603C396.179 154.952 396.335 156.337 396.291 157.687C396.291 157.781 396.145 157.798 396.128 157.704C395.904 156.423 395.878 155.099 395.766 153.8C395.654 152.442 395.559 151.075 395.481 149.716C395.326 146.999 395.257 144.257 395.007 141.548C395.007 141.462 395.137 141.462 395.137 141.548H395.154Z" fill="#263238"/>
<path d="M396.963 165.76L399.118 184.091L401.359 202.413L405.987 239.032L414.192 310.542L406.832 238.929L402.014 202.327L399.532 184.039L396.963 165.76Z" fill="#263238"/>
<path d="M400.403 82.3594C393.111 87.3463 370.418 102.324 359.679 100.123C352.586 98.6699 331.281 88.5844 326.558 84.5261C324.61 82.8495 338.339 65.2064 340.942 66.4015C345.76 68.6284 364.006 79.823 366.16 80.3131C368.893 80.9322 379.537 77.2952 397.498 74.1397C406.729 72.5147 406.694 78.0518 400.403 82.3594Z" fill="#FFB68D"/>
<path d="M333.866 57.6314C330.453 56.1009 326.661 54.0718 322.748 53.8225C318.835 53.5731 315.164 58.4482 315.043 59.927C314.922 61.3973 315.638 70.7089 319.542 71.0357C323.446 71.3538 321.679 64.1057 321.886 63.3061C322.102 62.5064 322.334 61.4833 323.067 61.6209C323.8 61.7584 336.193 68.9292 336.193 68.9292L333.866 57.6314Z" fill="#FFB68D"/>
<path d="M333.564 58.1474C333.34 58.1302 323.213 53.1433 319.3 52.894C315.388 52.6446 311.716 57.5197 311.595 58.9986C311.475 60.4688 312.19 69.7805 316.094 70.1072C319.999 70.4253 318.232 63.1772 318.439 62.3776C318.654 61.578 318.887 60.5548 319.619 60.6924C320.352 60.83 332.746 68.0007 332.746 68.0007L333.564 58.1474Z" fill="#FFB68D"/>
<path d="M317.465 69.7202C317.999 69.1441 318.154 68.2241 318.309 67.4675C318.473 66.6421 318.473 65.7995 318.37 64.9655C318.284 64.2433 318.042 63.5124 318.077 62.7816C318.111 62.1024 318.421 61.3285 318.792 60.7697C319.137 60.2452 319.697 60.4859 320.18 60.6923C320.886 61.0104 321.567 61.4317 322.222 61.8272C322.938 62.2571 323.644 62.7042 324.351 63.1513C325.084 63.607 325.851 64.0369 326.514 64.5786C326.566 64.6216 326.514 64.7075 326.454 64.6818C325.79 64.3894 325.17 63.9853 324.549 63.6328C323.834 63.2201 323.119 62.8246 322.395 62.4291C321.722 62.0594 321.067 61.6553 320.386 61.3027C320.145 61.1738 319.671 60.8728 319.387 60.9072C319.085 60.9502 318.878 61.6725 318.792 61.9046C318.525 62.6354 318.611 63.2803 318.749 64.0197C318.887 64.7333 318.982 65.4556 318.973 66.1864C318.973 66.857 318.887 67.5707 318.646 68.2069C318.413 68.8174 317.947 69.2817 317.577 69.8062C317.525 69.8835 317.404 69.789 317.465 69.7202Z" fill="#263238"/>
<path d="M345.114 69.4021C345.114 69.4021 335.099 58.6632 333.004 56.5223C328.807 52.2233 310.406 42.8945 307.777 42.3958C305.149 41.8971 303.735 47.2451 316.198 53.9515C322.765 57.4853 323.653 61.4748 323.343 63.6243C323.033 65.7738 320.637 69.6171 317.008 69.2216C313.38 68.8261 311.458 63.3319 308.165 62.4721C304.873 61.6037 306.571 67.8975 308.639 71.629C310.708 75.3519 314.741 78.6192 317.792 80.0551C320.843 81.4909 330.229 86.4778 330.229 86.4778L345.114 69.4021Z" fill="#FFB68D"/>
<path d="M312.708 66.2982C313.992 67.4675 315.431 68.9721 317.224 69.1871C319.085 69.4106 320.395 68.3015 321.387 66.857C322.386 65.404 323.033 63.7016 322.757 61.9218C322.507 60.3139 321.68 58.8437 320.602 57.6486C319.266 56.1611 317.637 55.009 315.948 53.9686C315.871 53.9256 315.948 53.8138 316.034 53.8568C317.646 54.7424 322.679 57.296 323.334 61.9734C323.602 63.8821 322.903 65.5071 321.895 67.0032C320.973 68.3789 319.68 69.6772 317.905 69.6772C315.741 69.6772 314.035 67.777 312.604 66.3497C312.544 66.2896 312.647 66.2466 312.716 66.3068L312.708 66.2982Z" fill="#263238"/>
<path d="M346.338 66.4272L334.194 92.8145C334.194 92.8145 356.18 103.596 362.92 102.41C369.668 101.223 390.586 90.3899 400.98 82.4453C408.134 76.977 405.626 71.6204 395.387 73.4518C385.372 75.2402 367.927 79.565 366.988 79.7972C366.057 80.0293 346.338 66.4272 346.338 66.4272Z" fill="#0079A2"/>
<path d="M346.174 82.901C346.949 80.9062 349.992 72.9187 350.595 70.8724C350.604 70.838 350.552 70.8122 350.535 70.8466C349.578 72.6865 346.346 80.4849 345.562 82.4711C344.01 86.4434 342.364 90.4156 341.252 94.5427C341.235 94.6115 341.339 94.6802 341.382 94.6029C343.235 90.8111 344.648 86.8217 346.174 82.8924V82.901Z" fill="#263238"/>
<path opacity="0.1" d="M400.989 82.4538C390.586 90.407 369.668 101.232 362.929 102.41C361.748 102.616 360.084 102.461 358.154 102.049L404.867 75.541C405.582 77.3208 404.359 79.8658 400.989 82.4452V82.4538Z" fill="black"/>
<path d="M377.253 144.17C377.253 144.17 433.033 145.804 433.317 145.46C434.084 144.514 422.535 91.9375 409.961 76.2634C405.272 70.4167 396.636 71.8096 393.43 76.8222C381.364 95.6605 377.184 143.749 377.253 144.17Z" fill="#0079A2"/>
<path opacity="0.2" d="M433.24 143.981L377.356 142.906C377.39 142.511 377.434 142.029 377.485 141.471L433.007 142.545C433.102 143.096 433.179 143.577 433.24 143.981ZM432.326 139.055L377.847 138.006C377.796 138.504 377.744 138.986 377.692 139.433L432.619 140.499C432.533 140.043 432.429 139.562 432.326 139.055ZM431.576 135.564L378.252 134.532C378.192 135.031 378.132 135.504 378.08 135.968L431.895 137.008C431.792 136.544 431.68 136.062 431.576 135.564ZM430.766 132.073L378.692 131.067C378.632 131.557 378.571 132.039 378.511 132.503L431.102 133.517C430.99 133.053 430.878 132.572 430.766 132.073ZM429.913 128.582L379.175 127.602C379.106 128.084 379.037 128.565 378.968 129.038L430.275 130.027C430.154 129.554 430.033 129.072 429.913 128.582ZM429.025 125.091L379.692 124.137C379.614 124.627 379.536 125.1 379.468 125.573L429.396 126.536C429.275 126.063 429.154 125.581 429.025 125.091ZM428.103 121.601L380.243 120.672C380.157 121.162 380.079 121.635 380.011 122.108L428.491 123.045C428.361 122.572 428.232 122.091 428.103 121.601ZM427.137 118.11L380.829 117.216C380.743 117.697 380.666 118.17 380.579 118.643L427.543 119.554C427.413 119.073 427.275 118.591 427.137 118.11ZM426.138 114.61L381.467 113.751C381.372 114.232 381.286 114.705 381.2 115.178L426.551 116.055C426.422 115.573 426.276 115.092 426.138 114.61ZM425.095 111.12L382.148 110.286C382.053 110.767 381.95 111.249 381.864 111.73L425.534 112.573C425.388 112.091 425.241 111.61 425.095 111.12ZM424 107.62L382.881 106.829C382.777 107.311 382.674 107.784 382.57 108.265L424.466 109.073C424.311 108.583 424.155 108.102 424 107.62ZM422.871 104.121L383.673 103.364C383.561 103.846 383.441 104.327 383.329 104.809L423.345 105.583C423.19 105.092 423.026 104.611 422.871 104.121ZM421.665 100.63L384.527 99.9078C384.406 100.381 384.285 100.862 384.165 101.344L422.173 102.083C422.009 101.593 421.837 101.112 421.665 100.63ZM420.415 97.1393L385.458 96.46C385.32 96.9329 385.19 97.4058 385.061 97.8873L420.941 98.5837C420.768 98.1023 420.587 97.6208 420.415 97.1393ZM419.062 93.6313L386.483 93.0036C386.328 93.4765 386.19 93.9494 386.052 94.4309L419.631 95.0844C419.441 94.5943 419.251 94.1042 419.062 93.6313ZM417.622 90.1319L387.612 89.5558C387.448 90.0287 387.285 90.5016 387.13 90.9831L418.234 91.5764C418.028 91.0949 417.829 90.6048 417.622 90.1319ZM416.062 86.6239L388.871 86.0994C388.69 86.5723 388.509 87.0452 388.336 87.5267L416.718 88.077C416.502 87.5869 416.278 87.0968 416.062 86.6239ZM414.313 83.1159L390.327 82.6516C390.112 83.1159 389.905 83.5974 389.698 84.0789L415.054 84.569C414.813 84.0703 414.563 83.5888 414.313 83.1159ZM412.305 79.6079L392.034 79.2124C391.775 79.6681 391.534 80.141 391.284 80.6311L413.175 81.061C412.891 80.5537 412.606 80.0722 412.305 79.6079ZM409.969 76.2547C409.917 76.1945 409.874 76.1343 409.823 76.0828L394.223 75.7818C393.93 76.1086 393.671 76.4525 393.438 76.8136C393.361 76.9426 393.275 77.0715 393.206 77.2005L410.934 77.5358C410.615 77.0887 410.297 76.6588 409.969 76.2547ZM403.074 72.4802H402.988L401.411 72.4458H401.342C399.704 72.549 398.11 73.0133 396.722 73.7871L407.461 73.9934C406.099 73.125 404.591 72.635 403.074 72.4802Z" fill="black"/>
<path d="M405.341 84.036C408.771 92.1611 419.752 117.001 429.982 120.939C436.739 123.544 459.553 127.112 465.724 126.244C468.275 125.883 466.853 103.055 464.017 102.668C458.751 101.937 438.075 102.161 435.257 100.776C432.74 99.5382 425.638 91.0176 412.236 78.688C405.35 72.3513 402.376 77.02 405.341 84.036Z" fill="#FFB68D"/>
<path d="M462.897 126.218C465.327 126.648 476.661 127.645 479.875 127.224C483.09 126.794 492.26 124.902 492.183 122.417C492.105 119.924 489.382 120.268 489.382 120.268C489.382 120.268 493.122 118.858 492.821 116.356C492.51 113.854 488.287 114.525 488.287 114.525C488.287 114.525 492.028 112.796 491.545 110.32C491.062 107.852 486.925 109.228 486.925 109.228C486.925 109.228 490.416 107.809 489.158 105.935C487.641 103.691 481.504 107.036 477.919 107.242C477.109 107.285 461.345 107.01 461.345 107.01L462.897 126.209V126.218Z" fill="#FFB68D"/>
<path d="M487.279 109.125C482.754 111.575 480.358 111.868 475.299 111.541C475.204 111.541 475.17 111.679 475.273 111.696C480.194 112.47 483.263 112.538 487.408 109.34C487.615 109.185 487.494 109.013 487.279 109.125Z" fill="#263238"/>
<path d="M488.641 114.327C483.719 116.459 481.116 116.803 475.799 116.846C475.721 116.846 475.713 116.975 475.799 116.984C481.022 117.379 484.081 117.379 488.718 114.593C488.925 114.464 488.873 114.232 488.649 114.327H488.641Z" fill="#263238"/>
<path d="M489.114 120.259C484.202 121.988 481.366 122.478 476.195 121.859C476.074 121.841 476.04 122.022 476.161 122.048C481.366 123.191 484.917 122.598 489.149 120.414C489.442 120.268 489.425 120.148 489.114 120.259Z" fill="#263238"/>
<path d="M460.268 102.831C460.268 102.831 466.077 100.037 468.895 99.3662C471.714 98.6956 483.151 100.071 482.996 102.556C482.789 105.763 476.032 106.262 472.688 106.081C472.688 106.081 472.222 113.493 467.456 114.903C462.681 116.313 460.268 102.84 460.268 102.84V102.831Z" fill="#FFB68D"/>
<path d="M482.651 103.416C480.35 106.202 475.98 105.677 472.722 105.746C472.472 105.746 472.394 105.952 472.429 106.141C472.024 109.237 470.559 113.484 467.628 114.997C467.542 115.04 467.594 115.169 467.689 115.135C471.05 113.931 472.834 109.873 473.058 106.46C476.402 106.451 480.806 106.778 482.677 103.433C482.685 103.416 482.659 103.399 482.651 103.416Z" fill="#263238"/>
<path d="M459.354 99.2974L455.26 128.041C455.26 128.041 430.921 125.246 425.896 120.612C420.863 115.978 409.142 95.5744 404.712 83.2793C401.661 74.8188 406.677 71.672 414.296 78.7309C421.751 85.6437 434.084 98.6869 434.739 99.3919C435.394 100.097 459.363 99.2888 459.363 99.2888L459.354 99.2974Z" fill="#0079A2"/>
<path d="M450.572 113.243C451.003 111.154 452.778 102.788 453.373 100.742C453.381 100.708 453.442 100.716 453.433 100.742C453.244 102.805 451.735 111.111 451.313 113.209C450.468 117.388 449.701 121.618 448.391 125.685C448.365 125.754 448.245 125.745 448.253 125.668C448.745 121.48 449.727 117.362 450.572 113.235V113.243Z" fill="#263238"/>
<path d="M438.876 125.418C436.825 125.057 434.791 124.584 432.792 123.974C430.801 123.355 428.818 122.641 427.009 121.558C426.095 121.042 425.293 120.294 424.595 119.52C423.88 118.755 423.208 117.947 422.561 117.121C421.26 115.479 420.053 113.768 418.933 112.005C416.64 108.515 414.615 104.86 412.684 101.163C410.771 97.4575 408.996 93.683 407.41 89.8311C409.392 93.5024 411.34 97.1738 413.348 100.811C414.348 102.633 415.356 104.448 416.416 106.236C417.459 108.033 418.493 109.83 419.596 111.593C420.7 113.347 421.829 115.092 423.027 116.777C423.621 117.628 424.251 118.445 424.914 119.245C425.535 120.087 426.293 120.758 427.172 121.308C428.922 122.409 430.878 123.166 432.852 123.819C434.834 124.455 436.851 124.997 438.894 125.418H438.876Z" fill="#263238"/>
<path d="M407.297 92.1008C407.797 92.5565 408.22 93.038 408.65 93.5195L409.288 94.2503C409.495 94.4997 409.719 94.7318 409.926 95.007C409.297 94.749 408.771 94.3019 408.332 93.8118C407.901 93.3046 407.513 92.7543 407.297 92.1094V92.1008Z" fill="#263238"/>
<path d="M396.8 81.8262C399.782 82.8579 405.505 78.7309 407.961 75.1627C408.125 74.9134 408.004 72.1534 408.022 68.783C408.039 66.7367 408.108 64.4582 408.315 62.3861C408.358 61.9648 394.956 64.226 394.956 64.226C394.956 64.226 395.792 68.7056 395.404 72.3168C395.369 72.6177 395.309 72.8928 395.231 73.1594C395.231 73.1938 395.206 73.2454 395.197 73.2969C394.766 74.8876 393.921 80.8288 396.8 81.8262Z" fill="#FFB68D"/>
<path d="M407.504 62.3518C406.539 65.7996 403.496 74.0451 396.524 73.4948C396.041 73.4604 395.593 73.3917 395.197 73.2885C395.197 73.2283 395.214 73.1853 395.231 73.1509C395.309 72.8844 395.369 72.6092 395.412 72.3083C395.8 68.6885 394.964 64.209 394.964 64.209C394.964 64.209 404.634 62.5754 407.513 62.3518H407.504Z" fill="#DB8A5D"/>
<path d="M409.797 45.7231C411.383 50.3059 409.418 63.7703 406.22 66.8742C401.592 71.371 393.766 72.0674 389.879 66.4615C386.104 61.0276 388.983 43.522 392.568 40.6761C397.86 36.4889 407.452 38.9565 409.797 45.7231Z" fill="#FFB68D"/>
<path d="M399.101 54.0288C399.101 54.0288 399.17 54.0804 399.161 54.1148C399.006 55.0176 398.98 56.0837 399.756 56.4964C399.782 56.505 399.773 56.5566 399.739 56.548C398.756 56.2643 398.808 54.8542 399.101 54.0288Z" fill="#263238"/>
<path d="M400.049 53.1949C401.531 53.2894 401.23 56.23 399.859 56.144C398.515 56.058 398.808 53.1175 400.049 53.1949Z" fill="#263238"/>
<path d="M393.844 53.4958C393.844 53.4958 393.766 53.5302 393.766 53.5732C393.706 54.4846 393.473 55.525 392.62 55.7485C392.594 55.7485 392.594 55.8001 392.62 55.8001C393.646 55.7571 393.93 54.3814 393.844 53.5044V53.4958Z" fill="#263238"/>
<path d="M393.128 52.4555C391.672 52.1976 391.258 55.1295 392.611 55.3702C393.938 55.611 394.352 52.6791 393.128 52.4555Z" fill="#263238"/>
<path d="M401.35 51.9653C400.963 51.8277 400.618 51.6299 400.247 51.4494C399.825 51.243 399.472 51.1312 399.222 50.7099C399.092 50.4864 399.187 50.1167 399.394 49.9705C399.877 49.6266 400.454 49.747 400.971 49.9705C401.531 50.2113 401.902 50.5466 402.178 51.0797C402.454 51.6041 401.859 52.1544 401.342 51.9739L401.35 51.9653Z" fill="#263238"/>
<path d="M392.137 50.8649C392.551 50.8391 392.93 50.7446 393.344 50.6758C393.809 50.5984 394.18 50.5898 394.533 50.2545C394.723 50.0739 394.731 49.6956 394.576 49.4893C394.214 49.025 393.619 48.9734 393.068 49.0422C392.464 49.1195 392.016 49.3259 391.594 49.773C391.189 50.2029 391.594 50.8993 392.146 50.8649H392.137Z" fill="#263238"/>
<path d="M398.722 62.5753C398.481 62.7645 398.231 63.0396 397.895 63.031C397.576 63.031 397.214 62.8418 396.938 62.7043C396.912 62.6871 396.878 62.7215 396.895 62.7473C397.093 63.117 397.576 63.3921 398.007 63.3577C398.429 63.3233 398.67 62.988 398.808 62.6269C398.825 62.5753 398.756 62.5495 398.722 62.5753Z" fill="#263238"/>
<path d="M398.032 59.7466C397.438 60.486 396.645 60.8471 395.817 60.9159C395.447 60.9503 395.067 60.9245 394.688 60.8557C394.611 60.8471 394.542 60.83 394.473 60.8128C394.404 60.7956 394.343 60.787 394.275 60.7612C394.171 60.7354 394.119 60.6408 394.111 60.5376C394.111 60.5376 394.111 60.4688 394.128 60.4344L394.137 60.3485C394.188 59.6434 394.361 58.5859 394.361 58.5859C394.094 58.6891 392.723 59.1447 392.775 58.7836C393.266 55.7657 393.809 52.4039 394.938 49.5064C394.973 49.4118 395.119 49.4462 395.102 49.5494C394.749 52.4727 393.878 55.31 393.473 58.2334C393.904 58.113 394.619 57.8894 394.99 57.9324C395.085 57.9754 394.611 59.9788 394.611 60.2969C394.611 60.2969 394.611 60.3141 394.611 60.3313C395.774 60.5978 396.705 60.3313 397.937 59.6606C398.015 59.6176 398.075 59.6864 398.015 59.7552L398.032 59.7466Z" fill="#263238"/>
<path d="M395.136 60.5891C395.136 60.5891 395.714 61.4661 396.558 61.8186C396.869 61.9476 397.205 62.0164 397.567 61.939C398.308 61.7842 398.368 61.1222 398.265 60.5375C398.179 60.056 397.989 59.6433 397.989 59.6433C397.989 59.6433 396.86 60.5805 395.145 60.5891H395.136Z" fill="#263238"/>
<path d="M396.559 61.8272C396.869 61.9562 397.205 62.025 397.567 61.9476C398.308 61.7929 398.369 61.1308 398.265 60.5461C397.472 60.5805 396.671 61.0706 396.559 61.8272Z" fill="#FFF5F9"/>
<path d="M406.349 53.1175C405.444 50.4521 406.978 45.9811 405.643 44.786C402.755 42.1894 396.834 47.159 392.766 47.1848C388.827 47.2106 387.509 44.6828 388.224 41.493C388.94 38.3031 391.654 36.1622 396.067 35.5087C400.635 34.8295 404.807 36.6695 407.073 38.1225C407.073 38.1225 406.082 36.5319 406.453 36.0332C406.823 35.5431 408.754 37.0736 409.34 37.7184C409.935 38.3805 410.305 39.61 410.305 39.61C410.305 39.61 411.021 39.395 412.107 39.4208C413.106 39.4466 414.373 40.2291 414.442 40.4612C414.511 40.6933 413.08 40.8739 412.072 40.9255C412.072 40.9255 413.942 43.4103 413.899 45.534C413.856 47.6577 410.538 57.7432 409.745 57.855C408.719 57.9925 406.711 54.1922 406.341 53.1089L406.349 53.1175Z" fill="#263238"/>
<path d="M411.685 40.6848C411.685 40.6848 411.598 40.7106 411.633 40.745C412.59 41.5704 413.365 42.5334 413.762 43.7543C414.218 45.173 414.124 46.6948 413.805 48.1307C413.184 50.9164 411.814 53.4529 410.624 56.0237C410.59 56.101 410.719 56.1612 410.754 56.0838C412.184 53.4357 413.65 50.5639 414.193 47.5804C414.658 45.0354 414.063 42.1121 411.685 40.6848Z" fill="#263238"/>
<path d="M405.798 43.7542C404.643 43.5908 403.359 43.7026 402.23 43.9863C401.118 44.27 400.161 44.9579 399.17 45.4996C396.929 46.7119 394.482 47.6491 391.896 47.4943C391.861 47.4943 391.861 47.5373 391.896 47.5459C394.257 47.8382 396.567 47.1418 398.67 46.1014C399.73 45.5769 400.73 44.8203 401.842 44.4334C403.109 43.9863 404.471 44.0035 405.798 43.9777C405.936 43.9777 405.944 43.7886 405.807 43.7628L405.798 43.7542Z" fill="#263238"/>
<path d="M404.651 36.9962C403.065 36.188 401.342 35.6549 399.601 35.3282C397.929 35.0101 396.196 34.8725 394.507 35.1477C391.594 35.6206 388.905 37.4691 388.224 40.4612C387.879 41.9745 388.035 43.6425 388.819 45.001C388.871 45.0956 389.008 45.0182 388.965 44.9236C387.767 42.3098 388.241 39.1371 390.465 37.2026C392.852 35.1305 396.214 34.9757 399.204 35.4486C401.083 35.7495 402.876 36.3256 404.651 37.0048C404.66 37.0048 404.669 36.9876 404.66 36.9876L404.651 36.9962Z" fill="#263238"/>
<path d="M398.498 58.947C396.481 58.3365 395.343 56.2042 395.947 54.2009C396.559 52.1889 398.687 51.054 400.704 51.6558C402.721 52.2663 403.859 54.39 403.255 56.4019C402.738 58.1044 401.135 59.1791 399.429 59.1017C399.118 59.0845 398.808 59.0329 398.489 58.9384L398.498 58.947ZM396.438 54.347C395.912 56.0924 396.903 57.9324 398.644 58.4569C400.385 58.9813 402.238 57.9926 402.764 56.2558C403.29 54.5104 402.299 52.6704 400.558 52.1459C400.291 52.0685 400.015 52.017 399.748 52.0084C398.274 51.9396 396.878 52.8768 396.438 54.347Z" fill="#006182"/>
<path d="M390.543 57.6313C389 57.382 388.017 55.4904 388.354 53.4183C388.517 52.4296 388.948 51.544 389.577 50.9163C390.224 50.2714 391.008 49.9877 391.775 50.1081C392.542 50.2285 393.189 50.7529 393.602 51.5697C393.999 52.3608 394.128 53.3409 393.973 54.3297C393.654 56.2901 392.258 57.7259 390.801 57.6571C390.715 57.6571 390.637 57.6485 390.551 57.6313H390.543ZM389.939 51.2774C389.388 51.8277 389 52.6101 388.862 53.4957C388.569 55.2927 389.362 56.9177 390.629 57.1241C391.904 57.3304 393.171 56.0407 393.464 54.2437C393.611 53.3581 393.499 52.4897 393.146 51.7933C392.809 51.1313 392.292 50.71 391.698 50.6068C391.637 50.5982 391.568 50.5896 391.508 50.5896C390.974 50.5638 390.422 50.8045 389.948 51.2688L389.939 51.2774Z" fill="#006182"/>
<path d="M396.007 54.6566L396.395 54.3213C395.904 53.7538 394.688 52.894 393.603 53.728L393.913 54.1321C394.878 53.3841 395.955 54.605 396.007 54.6566Z" fill="#006182"/>
<path d="M412.641 58.3538L413.123 58.199C413.046 57.9755 412.374 55.9807 411.27 55.6196C410.245 55.2843 403.393 54.8114 403.1 54.7942L403.065 55.3015C405.03 55.4304 410.322 55.8346 411.107 56.1011C411.831 56.3418 412.451 57.8121 412.632 58.3538H412.641Z" fill="#006182"/>
<path d="M407.323 56.7374C407.323 56.7374 410.288 52.361 412.27 53.4099C414.261 54.4589 412.081 60.7698 409.78 61.664C407.478 62.5582 406.608 60.4517 406.608 60.4517L407.323 56.7374Z" fill="#FFB68D"/>
<path d="M411.607 55.1982C411.607 55.1982 411.65 55.2498 411.624 55.2584C410.012 55.9377 409.185 57.4509 408.616 59.0158C409.09 58.4053 409.737 58.07 410.555 58.6288C410.598 58.6546 410.555 58.7234 410.512 58.7148C409.849 58.5859 409.366 58.7062 408.926 59.2479C408.616 59.6262 408.409 60.1077 408.185 60.5462C408.108 60.6924 407.849 60.615 407.901 60.4516C407.901 60.443 407.901 60.4258 407.909 60.4172C407.832 58.3537 409.392 55.4476 411.607 55.1982Z" fill="#263238"/>
<defs>
<filter id="filter0_d_55_7388" x="0.75" y="0.75" width="325.122" height="208.5" filterUnits="userSpaceOnUse" color-interpolation-filters="sRGB">
<feFlood flood-opacity="0" result="BackgroundImageFix"/>
<feColorMatrix in="SourceAlpha" type="matrix" values="0 0 0 0 0 0 0 0 0 0 0 0 0 0 0 0 0 0 127 0" result="hardAlpha"/>
<feOffset dy="2"/>
<feGaussianBlur stdDeviation="2"/>
<feComposite in2="hardAlpha" operator="out"/>
<feColorMatrix type="matrix" values="0 0 0 0 0 0 0 0 0 0 0 0 0 0 0 0 0 0 0.16 0"/>
<feBlend mode="normal" in2="BackgroundImageFix" result="effect1_dropShadow_55_7388"/>
<feBlend mode="normal" in="SourceGraphic" in2="effect1_dropShadow_55_7388" result="shape"/>
</filter>
<filter id="filter1_d_55_7388" x="170.75" y="110.75" width="225.193" height="148.213" filterUnits="userSpaceOnUse" color-interpolation-filters="sRGB">
<feFlood flood-opacity="0" result="BackgroundImageFix"/>
<feColorMatrix in="SourceAlpha" type="matrix" values="0 0 0 0 0 0 0 0 0 0 0 0 0 0 0 0 0 0 127 0" result="hardAlpha"/>
<feOffset dx="-4" dy="-4"/>
<feGaussianBlur stdDeviation="4"/>
<feComposite in2="hardAlpha" operator="out"/>
<feColorMatrix type="matrix" values="0 0 0 0 0 0 0 0 0 0 0 0 0 0 0 0 0 0 0.16 0"/>
<feBlend mode="normal" in2="BackgroundImageFix" result="effect1_dropShadow_55_7388"/>
<feBlend mode="normal" in="SourceGraphic" in2="effect1_dropShadow_55_7388" result="shape"/>
</filter>
</defs>
</svg>
